<svg class="gamebob-cat" width="444" height="256" viewBox="0 0 444 256" fill="none" xmlns="http://www.w3.org/2000/svg">
    <path d="M104 34.061C104 45.0971 101.698 57.2177 96.5718 67.1771C94.8234 70.5742 91.0259 71.5085 88.9846 74.6175C85.5803 79.8022 83.7789 86.6275 81.4637 92.3673C73.2808 112.655 70.3268 135.018 63.3619 155.7C59.4969 167.176 41.8334 168.265 45 181.837C38.5719 184.322 31.7409 188.397 35 195.911C32.2731 196.844 29.6581 197.954 27 199.068C25.3501 199.758 23.6208 200.323 22.0193 201.124C18.1467 203.06 15.4239 207.628 21.0586 209.409C26.349 211.082 32.5092 209.774 38 210.94C40.6776 211.508 45.8998 213.069 47.9537 210.395C50.1268 207.566 46.5175 204.1 45 201.943C51.5589 199.54 72.9105 200.392 66.3966 188.875C65.5553 187.387 64.1858 186.139 62.9954 184.944C60.6299 182.567 58.2183 180.338 56 177.816C61.4677 175.444 69.7105 171.28 73.2184 166.288C74.8724 163.934 74.0448 161.366 74.3457 158.716C74.7257 155.368 76.1795 151.912 77.0856 148.663C80.8835 135.044 84.4303 120.441 90 107.447C95.4193 115.716 98.2927 103.84 99.8349 99.4043C102.711 91.1316 104.699 82.6064 107.376 74.2722C109.4 67.9719 112.099 61.7613 113 55.1719C116.197 56.9494 116.838 60.0151 119.549 62.1608C121.682 63.8492 124.639 63.4449 126.91 64.9005C129.914 66.8255 132.213 70.3859 134.23 73.267C137.594 78.0729 141.04 87.3653 146.133 90.3296C148.223 91.5464 150.811 91.3493 153 92.3541C157.182 94.2736 160.158 97.741 165 98.1702C169.157 98.5385 173.073 96.7162 177 95.6701C184.824 93.586 193.001 90.7299 201 89.5609C221.691 86.5369 241.992 89.5082 262 94.6788C273.752 97.7159 284.168 99.477 293 89.3515C299.046 93.1682 301.624 89.3302 305.373 84.3251C310.019 78.1242 313.946 69.8688 319.518 64.539C321.936 62.226 324.904 62.7068 327.675 61.2672C330.007 60.056 331.878 57.7326 334 56.1772C334.428 65.5738 339.616 74.4589 342.481 83.3198C344.879 90.7346 345.995 99.4132 349.499 106.382C351.52 110.401 354.495 110.234 358 108.452C358.598 122.197 366.129 136.413 369.711 149.668C370.934 154.192 369.93 161.557 372.194 165.372C375.622 171.151 387.959 172.835 389.462 179.917C390.168 183.244 386.119 185.683 384.419 187.959C382.132 191.021 382.033 194.251 382 197.922C388.726 199.181 395.394 200.076 402 201.943C400.174 204.605 398.798 206.857 398 209.985C405.395 212.701 414.297 210.666 422 209.698C424.306 209.407 429.6 209.133 429.654 205.833C429.746 200.263 417.087 197.259 413 195.911C415.846 188.619 410.385 187.756 406.318 182.749C403.937 179.818 404.168 175.848 401.682 173.001C396.631 167.214 389.194 164.579 384.89 157.711C381.544 152.372 380.578 144.64 378.799 138.61C374.569 124.283 371.332 109.586 366.711 95.3831C364.455 88.4467 362.477 77.3515 358.026 71.59C356.31 69.3681 353.542 70.0672 351.51 68.4733C349.23 66.6853 348.398 62.8231 347.515 60.1983C345.957 55.57 344.044 51.0062 343.444 46.1244C343.083 43.1953 344.163 39.9032 343.307 37.0916C342.493 34.4179 340.127 32.9466 338.598 30.7582C336.747 28.11 337.096 22.9355 333.035 22.4661C331.421 22.2795 330.191 23.1655 329.184 24.3286C327.485 26.2932 326.576 28.7426 324.664 30.5728C322.256 32.8793 319.305 34.159 317.572 37.1715C315.598 40.601 315.345 44.6657 313.285 48.1341C308.06 56.9336 300.587 64.3199 293.888 71.9747C290.154 76.2416 286.199 81.7548 281 84.301C276.376 86.5656 271.556 84.097 267 82.9933C258.06 80.8273 248.961 78.7386 239.91 77.4029C222.911 74.8938 205.717 76.543 189 79.9316C181.916 81.3677 174.322 86.4142 167.001 86.0152C161.804 85.732 158.25 79.8063 155.075 76.2828C145.341 65.4806 135.965 54.1762 129.457 41.098C126.491 35.1379 122.942 29.9844 117.271 26.4112C115.795 25.4816 113.981 23.9204 112.109 24.1215C108.854 24.4711 109.392 28.622 108.406 30.8156C107.477 32.8804 105.952 33.3395 104 34.061Z" fill="white"/>
    <path class="eye" d="M127 136C123.182 138.185 121.447 142.393 118.444 145.584C110.685 153.832 103.277 166.434 103.054 178C102.518 205.776 129.368 229.383 157 222.391C165.375 220.272 172.532 214.895 178.829 209.196C185.853 202.84 189.083 194.77 191.886 186C194.695 177.208 195.374 165.996 192.794 157C186.418 134.771 168.63 117.989 144.576 125.985C138.533 127.994 128.394 128.38 127 136Z" fill="#15DDC0"/>
    <path class="eye" d="M286 124.425C265.596 127.237 253.34 152.068 253.34 171C253.34 200.973 277.822 227.144 308.715 222.732C336.199 218.807 350.294 186.915 343.026 162C340.308 152.681 334.558 147.949 327.885 141.511C324.944 138.673 323.083 134.729 319.857 132.245C310.917 125.36 296.939 122.918 286 124.425Z" fill="#19DBB8"/>
    <path class= "pupil" d="M308.218 162.082C313.018 183.282 301.051 186.915 295.218 188.582C291.551 187.249 279.218 186.082 281.218 166.082C282.71 151.163 281.218 142.582 290.218 139.582C296.926 137.346 303.418 140.882 308.218 162.082Z" fill="black"/>
    <path class="pupil" d="M139.11 162.082C134.31 183.282 146.277 186.915 152.11 188.582C155.777 187.249 168.11 186.082 166.11 166.082C164.618 151.163 166.11 142.582 157.11 139.582C150.402 137.346 143.91 140.882 139.11 162.082Z" fill="black"/>
    <path class="nose" d="M236 205C236 206.797 236.014 206.521 237 208C231 208 224.999 207.96 219 208.001C216.125 208.02 213.079 207.895 210.855 210.032C204.653 215.993 213.525 225.404 217.464 229.981C219.155 231.946 221.182 234.193 223.91 234.549C227.463 235.011 230.42 231.141 232.576 228.87C238.601 222.522 246.037 211.185 236 205ZM209 211C217.82 206.766 227.343 208 237 208C234.469 204.49 231.08 205.002 227 205C220.596 204.997 211.173 203.288 209 211Z" fill="white"/>
</svg>
