<svg version="1.1" id="Layer_1" xmlns="http://www.w3.org/2000/svg" xmlns:xlink="http://www.w3.org/1999/xlink" x="0px" y="0px"
	 viewBox="0 0 511.999 511.999" style="enable-background: new 0 0 511.999 511.999;" xml:space="preserve">
	<path style="fill: #ffe000;" d="M473.119,371.858c0.176-0.611,0.336-1.229,0.479-1.851c0.046-0.201,0.089-0.401,0.131-0.603
		c0.113-0.541,0.213-1.085,0.3-1.634c0.037-0.236,0.076-0.473,0.11-0.711c0.075-0.545,0.131-1.094,0.18-1.643
		c0.021-0.225,0.047-0.447,0.063-0.674c0.052-0.767,0.084-1.537,0.084-2.314l0,0l0,0v-0.006l-0.006-40.908v-0.001l-0.005-26.206
		v-0.002v-4.214l-0.004-25.576l0,0l-0.008-48.827l-0.005-26.206l-0.006-40.988c0-2.996-0.408-5.93-1.16-8.75
		c-0.405-1.517-0.915-2.997-1.521-4.435c-2.478-5.877-6.574-11.017-11.926-14.741c-0.784-0.545-1.584-1.071-2.42-1.554
		l-22.875-13.201l-21.415-12.359l-17.24-9.95l-65.93-38.05L304.226,31.61l-19.29-11.133l-11.954-6.898
		c-10.533-6.079-23.511-6.077-34.043,0.006l-11.873,6.857l-19.29,11.141l-25.719,14.855l0,0l-65.923,38.076L87.244,101.2
		l-21.409,12.366l-11.284,6.518c-0.811,0.469-1.59,0.979-2.353,1.507c-3.272,2.267-6.074,5.068-8.333,8.237
		c-1.517,2.128-2.781,4.423-3.774,6.842c-1.655,4.032-2.558,8.399-2.557,12.9l0.006,40.915l0.005,26.206l0.012,73.743v4.011v0.849
		v0.002v0.013l0,0v0.005l0,0l0.005,26.201l0,0v1.864l0.002,12.618l0.004,26.499v0.006l0,0c0,0.773,0.033,1.54,0.084,2.304
		c0.016,0.224,0.042,0.446,0.061,0.669c0.048,0.55,0.105,1.096,0.18,1.638c0.033,0.236,0.072,0.471,0.109,0.706
		c0.087,0.546,0.186,1.087,0.298,1.626c0.042,0.201,0.086,0.403,0.131,0.603c0.14,0.615,0.298,1.223,0.471,1.825
		c0.033,0.113,0.061,0.227,0.095,0.34c0.909,3.043,2.24,5.93,3.94,8.59c0,0,0.001,0.001,0.001,0.002l0.001,0.001
		c1.172,1.832,2.517,3.552,4.026,5.137c0.051,0.052,0.099,0.106,0.148,0.158c0.709,0.735,1.454,1.441,2.232,2.112
		c0.125,0.11,0.254,0.215,0.382,0.322c0.786,0.661,1.595,1.3,2.445,1.89c0.784,0.545,1.584,1.071,2.42,1.554l22.553,13.016
		l21.415,12.36l17.562,10.136l91.65,52.894l19.29,11.133l11.954,6.898c10.533,6.079,23.511,6.077,34.043-0.006l11.873-6.857
		l19.29-11.141l25.719-14.854l55.558-32.088l10.363-5.986l26.362-15.226l21.409-12.366l13.814-7.979
		c0.811-0.469,1.59-0.979,2.353-1.507c0.851-0.59,1.659-1.226,2.446-1.883c0.128-0.107,0.258-0.213,0.385-0.322
		c0.78-0.673,1.526-1.376,2.238-2.11c0.047-0.048,0.09-0.098,0.136-0.146c3.724-3.892,6.477-8.609,8.021-13.766
		C473.06,372.074,473.088,371.965,473.119,371.858z"/>
	<g>
		<path style="fill: #ed1f34;" d="M474.431,149.496c0-2.996-0.408-5.93-1.16-8.75c-0.405-1.517-0.915-2.997-1.521-4.435
			c-2.478-5.877-6.574-11.017-11.926-14.741c-0.784-0.545-1.584-1.071-2.42-1.554l-22.875-13.201l-21.415-12.359l-17.24-9.95
			l-65.93-38.05l-25.719-14.843l-19.29-11.133l-11.954-6.898c-10.533-6.079-23.511-6.077-34.043,0.006l-11.873,6.857l-19.29,11.141
			L182.057,46.44l0,0l-65.921,38.074L87.244,101.2l-21.409,12.366l-11.284,6.518c-0.811,0.469-1.59,0.979-2.353,1.507
			c-3.272,2.267-6.074,5.068-8.333,8.237c-1.517,2.128-2.781,4.423-3.774,6.842c-1.655,4.032-2.558,8.399-2.557,12.9v3.911h436.898
			V149.496z"/>
		<path style="fill: #ed1f34;" d="M395.927,358.518H37.568v3.977v0.006l0,0c0,0.773,0.033,1.54,0.084,2.304
			c0.016,0.224,0.042,0.446,0.061,0.669c0.048,0.55,0.105,1.096,0.18,1.638c0.033,0.236,0.072,0.471,0.109,0.706
			c0.087,0.546,0.186,1.087,0.298,1.626c0.042,0.201,0.086,0.403,0.131,0.603c0.14,0.615,0.298,1.222,0.471,1.825
			c0.033,0.113,0.061,0.227,0.095,0.34c0.909,3.043,2.24,5.93,3.94,8.59c0,0,0.001,0.001,0.001,0.002l0.001,0.001
			c1.172,1.833,2.517,3.552,4.026,5.137c0.051,0.052,0.099,0.106,0.148,0.158c0.709,0.735,1.454,1.441,2.232,2.112
			c0.125,0.11,0.254,0.215,0.382,0.322c0.786,0.661,1.595,1.3,2.445,1.89c0.784,0.545,1.584,1.071,2.42,1.554l22.553,13.016
			l21.415,12.36l17.562,10.136l91.65,52.894l19.29,11.133l11.954,6.898c10.533,6.079,23.511,6.077,34.043-0.006l11.873-6.857
			l19.29-11.141l25.719-14.854l55.558-32.088l10.363-5.986l26.362-15.226l21.409-12.366l13.814-7.979
			c0.811-0.469,1.59-0.979,2.353-1.507c0.851-0.59,1.659-1.226,2.446-1.883c0.128-0.107,0.258-0.213,0.385-0.322
			c0.78-0.673,1.526-1.376,2.238-2.11c0.047-0.048,0.09-0.098,0.136-0.146c3.724-3.892,6.477-8.609,8.021-13.766
			c0.031-0.106,0.059-0.215,0.09-0.322c0.176-0.611,0.336-1.229,0.479-1.851c0.046-0.201,0.089-0.401,0.131-0.603
			c0.113-0.541,0.213-1.085,0.3-1.634c0.037-0.236,0.076-0.473,0.11-0.711c0.075-0.545,0.131-1.094,0.18-1.643
			c0.02-0.225,0.047-0.447,0.063-0.674c0.052-0.767,0.084-1.537,0.084-2.314l0,0v-0.006v-3.905h-59.233L395.927,358.518
			L395.927,358.518z"/>
	</g>
</svg>
