<svg width="195" height="202" viewBox="0 0 195 202" fill="none" xmlns="http://www.w3.org/2000/svg">
<ellipse cx="97.437" cy="96.0783" rx="97.437" ry="96.0783" fill="#0077B6"/>
<path d="M66.6045 170.03C59.6015 170.03 52.932 169.527 46.596 168.523C40.26 167.686 34.1741 165.293 28.3383 163.284V125.086C32.34 126.76 36.8419 128.015 41.844 128.852C46.8461 129.689 51.8482 130.108 56.8503 130.108C65.8542 130.108 72.2735 128.267 76.1085 124.584C79.9435 120.901 81.8609 114.792 81.8609 106.255V5.82293H105.371H128.881V113.788C128.881 131.363 123.545 145.173 112.874 155.216C102.37 165.092 86.9464 170.03 66.6045 170.03Z" fill="#CCE5FF"/>
<path d="M90.8377 170.196L99.3738 151.834L102.531 153.302C104.299 154.124 105.718 154.266 106.787 153.729C107.979 153.146 109.01 151.92 109.879 150.049L116.993 134.748C119.522 129.307 123.42 126.208 128.686 125.452C125.791 121.108 125.648 116.13 128.256 110.52L135.369 95.2177C136.278 93.2625 136.551 91.6837 136.189 90.4813C135.95 89.2331 134.946 88.198 133.178 87.376L130.021 85.9082L138.557 67.546L153.081 74.2978C159.227 77.1551 162.914 80.6781 164.141 84.8669C165.452 89.0947 164.744 94.1415 162.017 100.007L154.785 115.564C153.126 119.135 152.344 122.028 152.44 124.243C152.66 126.413 154.103 128.376 156.768 130.132L150.366 143.904C147.597 143.03 145.291 143.147 143.445 144.253C141.639 145.275 140.005 147.358 138.543 150.503L130.718 167.335C127.991 173.201 124.609 176.953 120.571 178.591C116.578 180.353 111.508 179.805 105.362 176.948L90.8377 170.196Z" fill="#CCE5FF"/>
<path opacity="0.99" d="M25.1333 159.822L24.9881 160.137L25.2333 160.384C29.1253 164.29 33.4518 167.78 38.2121 170.851C42.9026 174.065 48.0586 176.965 53.679 179.55C70.0206 187.067 84.4598 188.512 96.95 183.777L96.9502 183.777C109.627 178.964 119.468 168.878 126.496 153.6L169.418 60.2879L169.627 59.8336L169.172 59.6247L131.577 42.3314L131.123 42.1225L130.914 42.5767L90.9862 129.379C87.6124 136.713 83.7229 141.145 79.3721 142.848C75.0284 144.547 69.3193 143.839 62.1691 140.55C58.1971 138.723 54.3898 136.537 50.7471 133.99C47.1088 131.447 44.0403 128.733 41.5368 125.85L41.0288 125.265L40.705 125.969L25.1333 159.822Z" fill="#0077B6" stroke="#0077B6"/>
<path d="M39.5972 80.3237L23.1942 75.6534L26.2763 66.1553L42.5226 72.7148L41.4778 54.4008H51.7167L50.6719 73.0821L66.5004 66.6276L69.5825 76.2306L52.866 80.9009L63.8362 94.8594L55.5302 100.789L46.0226 85.4663L36.6196 100.264L28.3136 94.597L39.5972 80.3237Z" fill="#CCE5FF"/>
</svg>
